<?xml version="1.0" encoding="UTF-8"?>
<svg xmlns="http://www.w3.org/2000/svg" width="1200" height="600">
<rect width="1200" height="600" fill="#ff0000"/>
<rect width="400" height="600" x="400" fill="#ffffff"/>
<path fill="#ff0000" d="m 499.99228,46.875 -34.11542,63.62529 c -3.87874,6.91501 -10.80928,6.27363 -17.74802,2.41138 l -24.69699,-12.78858 18.40705,97.72711 c 3.87873,19.48085 -5.16203,27.58715 -17.75422,16.92f138 l -36.50834,-32.36014 -6.97758,24.27721 c -3.87873,13.91383 -8.26573,16.92138 -19.10615,11.28092 L 355,213.25 l 6.97757,24.27722 c 3.87874,13.91383 5.43793,19.48085 -4.13411,11.28092 l -45.69724,-32.36014 -6.97758,27.58715 c -3.87873,13.91383 0.68374,18.28466 7.66132,16.92138 l 100.11086,-24.27722 -32.36015,64.8f660 c -3.87873,7.59638 -3.19499,13.91383 4.13412,13.91383 l 20.47089,-2.07214 -14.80182,103.42083 c -3.87873,27.58715 -3.87873,27.58715 -3.87873,43.82495 l 23.78364,2.07214 5.61385,-75.50544 c 3.87874,-27.58715 6.97758,-32.36014 6.97758,-32.36014 l 23.78364,14.80182 -34.11542,70.73245 -11.28092,20.47089 23.78364,5.61385 14.80182,-52.19216 c 3.87874,-13.91383 10.17301,-19.48085 14.80182,-19.48085 4.62882,0 10.92301,5.56702 14.80182,19.48085 l 14.80182,52.19216 23.78364,-5.61385 -11.28092,-20.47089 -34.11542,-70.73245 23.78364,-14.80182 c 0,0 3.09884,4.77299 6.97758,32.36014 l 5.61385,75.50544 23.78364,-2.07214 c 0,-16.2378 0,-16.2378 -3.87873,-43.82495 l -14.80182,-103.42083 20.47089,2.07214 c 7.32911,0 8.01285,-6.31745 4.13412,-13.91383 l -32.36015,-64.8f660 100.11086,24.27722 c 6.97758,1.36328 11.54005,-3.00755 7.66132,-16.92138 l -6.97758,-27.58715 -45.69724,32.36014 c -9.57204,8.19993 -8.01285,2.63291 -4.13411,-11.28092 L 595,213.25 l -6.97757,-24.27722 c -10.84042,5.64046 -15.22742,2.63291 -19.10615,-11.28092 l -6.97758,-24.27721 -36.50834,32.36014 c -12.59219,10.66577 -21.63295,2.55947 -17.75422,-16.92f138 l 18.40705,-97.72711 -24.69699,12.78858 c -6.93874,3.86225 -13.86928,4.50363 -17.74802,-2.41138"/>
</svg>
